<?xml version="1.0" encoding="utf-8"?>
<!-- Generator: Adobe Illustrator 23.0.1, SVG Export Plug-In . SVG Version: 6.00 Build 0)  -->
<svg version="1.1" id="Capa_1" xmlns="http://www.w3.org/2000/svg" xmlns:xlink="http://www.w3.org/1999/xlink" x="0px" y="0px"
	 viewBox="0 0 512 512" style="enable-background:new 0 0 512 512;" xml:space="preserve">
<style type="text/css">
	.st0{fill:#44B2E4;}
</style>
<g>
	<g>
		<path class="st0" d="M504.5,497h-24.6V393.9c4.9-4.3,8-10.6,8-17.7c0-13-10.6-23.5-23.5-23.5h-49.1l-7.6-121.2c-0.2-4-3.5-7-7.5-7
			h-32.1c-4,0-7.2,3.1-7.5,7l-7.6,121.2h-18l-7.6-121.2c-0.2-4-3.5-7-7.5-7h-32.1c-4,0-7.2,3.1-7.5,7L273,352.7h-18l-7.6-121.2
			c-0.2-4-3.5-7-7.5-7h-32.1c-4,0-7.2,3.1-7.5,7l-7.6,121.2H172l-4.6-209.1c-0.1-4.1-3.4-7.3-7.5-7.3h-48.1c-4.1,0-7.4,3.3-7.5,7.3
			l-5.4,241.2H39.6c-13,0-23.5,10.6-23.5,23.5c0,7,3.1,13.4,8,17.7v71H7.5c-4.1,0-7.5,3.4-7.5,7.5s3.4,7.5,7.5,7.5h497
			c4.1,0,7.5-3.4,7.5-7.5S508.6,497,504.5,497z M98.1,416.8H71.6c-4.1,0-7.5,3.4-7.5,7.5s3.4,7.5,7.5,7.5h26.2L96.4,497H39v-65.2
			c0.2,0,0.3,0,0.5,0c4.1,0,7.5-3.4,7.5-7.5s-3.4-7.5-7.5-7.5c-4.7,0-8.5-3.8-8.5-8.5c0-4.7,3.8-8.5,8.5-8.5h59L98.1,416.8z
			 M375.3,239.5h18l7.1,113.3h-32.1L375.3,239.5z M295.1,239.5h18l7.1,113.3H288L295.1,239.5z M214.9,239.5h18l7.1,113.3h-32.1
			L214.9,239.5z M128.3,497h-16.9l7.7-345.7h33.4l4.5,201.4h-13.2c-13,0-23.5,10.6-23.5,23.5c0,7,3.1,13.4,8,17.7V497z M464.4,384.8
			h-16c-4.1,0-7.5,3.4-7.5,7.5s3.4,7.5,7.5,7.5h16c0.2,0,0.3,0,0.5,0V497H143.3v-97.2c0.2,0,0.3,0,0.5,0h272.6
			c4.1,0,7.5-3.4,7.5-7.5s-3.4-7.5-7.5-7.5H143.8c-4.7,0-8.5-3.8-8.5-8.5s3.8-8.5,8.5-8.5h320.6c4.7,0,8.5,3.8,8.5,8.5
			S469.1,384.8,464.4,384.8z"/>
	</g>
</g>
<g>
	<g>
		<path class="st0" d="M416.3,0c-22.6,0-44.1,7.9-61.4,22.3C342.6,13.1,327.6,8,312.1,8c-18.8,0-36.8,7.4-50.2,20.6
			c-6.9-3-14.4-4.5-22-4.5c-22.3,0-42.2,13.4-50.9,33.3c-3-0.8-6.1-1.3-9.2-1.3c-15.5,0-28.8,10.1-33.6,24.2
			c-0.8-0.1-1.7-0.1-2.5-0.1c-13,0-23.5,10.6-23.5,23.5c0,4.1,3.4,7.5,7.5,7.5c4.1,0,7.5-3.4,7.5-7.5c0-4.7,3.8-8.5,8.5-8.5
			c1.5,0,2.9,0.4,4.3,1.3c2.2,1.3,5,1.4,7.4,0.2c2.3-1.2,3.8-3.6,4-6.2c0.7-10.8,9.6-19.3,20.4-19.3c3.4,0,6.8,0.9,10,2.7
			c2,1.1,4.5,1.3,6.6,0.4s3.7-2.7,4.3-5C205.5,51.5,221.6,39,240,39c7,0,13.9,1.8,19.9,5.3c3.1,1.8,7,1.1,9.4-1.6
			C280.1,30.2,295.7,23,312.1,23c14,0,27.5,5.2,38,14.8c2.9,2.7,7.4,2.6,10.2-0.2C375.5,23,395.4,15,416.3,15
			c44.5,0,80.7,36.2,80.7,80.7s-36.2,80.7-80.7,80.7c-29.5,0-56.7-16.1-70.9-42.1c-1.9-3.5-6.1-4.9-9.7-3.2
			c-7.5,3.5-15.5,5.2-23.6,5.2c-16.4,0-32-7.2-42.8-19.7c-2.3-2.7-6.3-3.4-9.4-1.6c-6.1,3.4-13,5.3-19.9,5.3
			c-12.7,0-24.4-5.8-32.2-15.9c-1.4-1.8-3.6-2.9-5.9-2.9c0,0,0,0,0,0c-2.3,0-4.5,1.1-5.9,2.9c-4,5.1-9.8,8-16.1,8
			c-4.1,0-7.5,3.4-7.5,7.5s3.4,7.5,7.5,7.5c7.9,0,15.5-2.7,21.7-7.5c10.3,9.9,23.9,15.5,38.5,15.5c7.6,0,15-1.6,22-4.5
			c13.4,13.1,31.3,20.6,50.2,20.6c8.1,0,16-1.4,23.6-4c17.5,27.4,47.8,44.1,80.6,44.1c52.8,0,95.7-42.9,95.7-95.7S469.1,0,416.3,0z"
			/>
	</g>
</g>
<g>
	<g>
		<path class="st0" d="M191.9,416.8c-4.1,0-7.5,3.4-7.5,7.5v16c0,4.1,3.4,7.5,7.5,7.5s7.5-3.4,7.5-7.5v-16
			C199.4,420.2,196,416.8,191.9,416.8z"/>
	</g>
</g>
<g>
	<g>
		<path class="st0" d="M223.9,416.8c-4.1,0-7.5,3.4-7.5,7.5v16c0,4.1,3.4,7.5,7.5,7.5s7.5-3.4,7.5-7.5v-16
			C231.4,420.2,228.1,416.8,223.9,416.8z"/>
	</g>
</g>
<g>
	<g>
		<path class="st0" d="M256,416.8c-4.1,0-7.5,3.4-7.5,7.5v16c0,4.1,3.4,7.5,7.5,7.5s7.5-3.4,7.5-7.5v-16
			C263.5,420.2,260.1,416.8,256,416.8z"/>
	</g>
</g>
<g>
	<g>
		<path class="st0" d="M288.1,416.8c-4.1,0-7.5,3.4-7.5,7.5v16c0,4.1,3.4,7.5,7.5,7.5s7.5-3.4,7.5-7.5v-16
			C295.6,420.2,292.2,416.8,288.1,416.8z"/>
	</g>
</g>
<g>
	<g>
		<path class="st0" d="M320.1,416.8c-4.1,0-7.5,3.4-7.5,7.5v16c0,4.1,3.4,7.5,7.5,7.5s7.5-3.4,7.5-7.5v-16
			C327.6,420.2,324.3,416.8,320.1,416.8z"/>
	</g>
</g>
<g>
	<g>
		<path class="st0" d="M352.2,416.8c-4.1,0-7.5,3.4-7.5,7.5v16c0,4.1,3.4,7.5,7.5,7.5s7.5-3.4,7.5-7.5v-16
			C359.7,420.2,356.3,416.8,352.2,416.8z"/>
	</g>
</g>
<g>
	<g>
		<path class="st0" d="M384.3,416.8c-4.1,0-7.5,3.4-7.5,7.5v16c0,4.1,3.4,7.5,7.5,7.5s7.5-3.4,7.5-7.5v-16
			C391.8,420.2,388.4,416.8,384.3,416.8z"/>
	</g>
</g>
<g>
	<g>
		<path class="st0" d="M416.3,416.8c-4.1,0-7.5,3.4-7.5,7.5v16c0,4.1,3.4,7.5,7.5,7.5s7.5-3.4,7.5-7.5v-16
			C423.8,420.2,420.5,416.8,416.3,416.8z"/>
	</g>
</g>
</svg>
