<?xml version="1.0" encoding="utf-8"?>
<!-- Generator: Adobe Illustrator 23.0.1, SVG Export Plug-In . SVG Version: 6.00 Build 0)  -->
<svg version="1.1" id="Слой_1" xmlns="http://www.w3.org/2000/svg" xmlns:xlink="http://www.w3.org/1999/xlink" x="0px" y="0px"
	 viewBox="0 0 512 512" style="enable-background:new 0 0 512 512;" xml:space="preserve">
<style type="text/css">
	.st0{fill:#44B2E4;}
</style>
<path class="st0" d="M464,472h-24V64c0-4.4-3.6-8-8-8h-96c-4.4,0-8,3.6-8,8v48H184V64c0-4.4-3.6-8-8-8H80c-4.4,0-8,3.6-8,8v408H16
	c-4.4,0-8,3.6-8,8s3.6,8,8,8h448c4.4,0,8-3.6,8-8S468.4,472,464,472z M88,72h80v400H88V72z M184,128h144v344h-8v-80c0-4.4-3.6-8-8-8
	H200c-4.4,0-8,3.6-8,8v80h-8V128z M248,408h-40v-8h40V408z M264,400h40v8h-40V400z M208,472v-48h40v48H208z M264,472v-48h40v48H264z
	 M344,472V72h80v400H344z"/>
<path class="st0" d="M496,472h-8c-4.4,0-8,3.6-8,8s3.6,8,8,8h8c4.4,0,8-3.6,8-8S500.4,472,496,472z"/>
<path class="st0" d="M200,288h112c4.4,0,8-3.6,8-8v-48c0-4.4-3.6-8-8-8H200c-4.4,0-8,3.6-8,8v48C192,284.4,195.6,288,200,288z
	 M304,240v32h-16v-32H304z M272,240v32h-32v-32H272z M208,240h16v32h-16V240z"/>
<path class="st0" d="M200,368h112c4.4,0,8-3.6,8-8v-48c0-4.4-3.6-8-8-8H200c-4.4,0-8,3.6-8,8v48C192,364.4,195.6,368,200,368z
	 M304,320v32h-16v-32H304z M272,320v32h-32v-32H272z M208,320h16v32h-16V320z"/>
<path class="st0" d="M200,208h112c4.4,0,8-3.6,8-8v-48c0-4.4-3.6-8-8-8H200c-4.4,0-8,3.6-8,8v48C192,204.4,195.6,208,200,208z
	 M304,160v32h-16v-32H304z M272,160v32h-32v-32H272z M208,160h16v32h-16V160z"/>
<path class="st0" d="M144,88h-32c-4.4,0-8,3.6-8,8v328c0,4.4,3.6,8,8,8h32c4.4,0,8-3.6,8-8V96C152,91.6,148.4,88,144,88z M136,168
	h-16v-24h16V168z M136,208h-16v-24h16V208z M136,248h-16v-24h16V248z M136,288h-16v-24h16V288z M136,328h-16v-24h16V328z M120,344
	h16v24h-16V344z M120,104h16v24h-16V104z M136,416h-16v-32h16V416z"/>
<path class="st0" d="M400,88h-32c-4.4,0-8,3.6-8,8v328c0,4.4,3.6,8,8,8h32c4.4,0,8-3.6,8-8V96C408,91.6,404.4,88,400,88z M392,168
	h-16v-24h16V168z M392,208h-16v-24h16V208z M392,248h-16v-24h16V248z M392,288h-16v-24h16V288z M392,328h-16v-24h16V328z M376,344
	h16v24h-16V344z M376,104h16v24h-16V104z M392,416h-16v-32h16V416z"/>
</svg>
