<?xml version="1.0" encoding="utf-8"?>
<!-- Generator: Adobe Illustrator 23.0.1, SVG Export Plug-In . SVG Version: 6.00 Build 0)  -->
<svg version="1.1" id="Layer_3" xmlns="http://www.w3.org/2000/svg" xmlns:xlink="http://www.w3.org/1999/xlink" x="0px" y="0px"
	 viewBox="0 0 512 512" style="enable-background:new 0 0 512 512;" xml:space="preserve">
<style type="text/css">
	.st0{fill:#44B2E4;}
</style>
<path class="st0" d="M483.3,208H496c4.4,0,8-3.6,8-8v-32c0-4.4-3.6-8-8-8h-8v-40c0-2.1-0.8-4.2-2.3-5.7l-32-32
	c-3.1-3.1-8.2-3.1-11.3,0L424,100.7l-10.3-10.3l-11.3,11.3l32,32l11.3-11.3L435.3,112L448,99.3l24,24V160H336v-32h24
	c4.4,0,8-3.6,8-8V88c0-4.4-3.6-8-8-8h-64c-4.4,0-8,3.6-8,8v32c0,4.4,3.6,8,8,8h24v32H192v-32h24c4.4,0,8-3.6,8-8V88c0-4.4-3.6-8-8-8
	h-64c-4.4,0-8,3.6-8,8v32c0,4.4,3.6,8,8,8h24v32H40v-36.7l24-24L76.7,112l-10.3,10.3l11.3,11.3l32-32L98.3,90.3L88,100.7L69.7,82.3
	c-3.1-3.1-8.2-3.1-11.3,0l-32,32c-1.5,1.5-2.3,3.5-2.3,5.7v40h-8c-4.4,0-8,3.6-8,8v32c0,4.4,3.6,8,8,8h12.7L88,267.3V320H72
	c-17.6,0-32,14.4-32,32v64H8v16h496v-16h-32v-64c0-17.6-14.4-32-32-32h-16v-52.7L483.3,208z M304,96h48v16h-48V96z M160,96h48v16
	h-48V96z M412.7,256h-63.7l24-48h87.7L412.7,256z M180.9,256l-24-48H248v48H180.9z M264,208h91.1l-24,48H264V208z M24,176h464v16H24
	V176z M139.1,208l24,48H99.3l-48-48H139.1z M336,416H176v-32h160V416z M456,352v64H352v-40c0-4.4-3.6-8-8-8H168c-4.4,0-8,3.6-8,8v40
	H56v-64c0-8.8,7.2-16,16-16h24h320h24C448.8,336,456,343.2,456,352z M104,320v-48h304v48H104z"/>
<path class="st0" d="M128,288h16v16h-16V288z"/>
<path class="st0" d="M208,288h16v16h-16V288z"/>
<path class="st0" d="M288,288h16v16h-16V288z"/>
<path class="st0" d="M368,288h16v16h-16V288z"/>
</svg>
