<?xml version="1.0" encoding="utf-8"?>
<!-- Generator: Adobe Illustrator 23.0.1, SVG Export Plug-In . SVG Version: 6.00 Build 0)  -->
<svg version="1.1" id="Layer_3" xmlns="http://www.w3.org/2000/svg" xmlns:xlink="http://www.w3.org/1999/xlink" x="0px" y="0px"
	 viewBox="0 0 512 512" style="enable-background:new 0 0 512 512;" xml:space="preserve">
<style type="text/css">
	.st0{fill:#44B2E4;}
</style>
<path class="st0" d="M504,64c0-4.4-3.6-8-8-8h-12.7l-45.7-45.7C436.2,8.8,434.1,8,432,8H80c-2.1,0-4.2,0.8-5.7,2.3L28.7,56H16
	c-4.4,0-8,3.6-8,8v32c0,1.3,0.4,2.5,0.9,3.5l-0.1,0L48,177.9V360H32c-4.4,0-8,3.6-8,8v88h-8c-4.4,0-8,3.6-8,8v32c0,4.4,3.6,8,8,8
	h480c4.4,0,8-3.6,8-8v-32c0-4.4-3.6-8-8-8h-8v-88c0-4.4-3.6-8-8-8h-16V177.9l39.2-78.3l-0.1,0c0.5-1.1,0.9-2.2,0.9-3.5V64z M83.3,24
	h345.4l32,32H51.3L83.3,24z M24,72h464v16H24L24,72z M428.9,104h54.1L456,158.1L428.9,104z M56,158.1L28.9,104h54.1L56,158.1z
	 M403.1,104L376,158.1L348.9,104H403.1z M323.1,104L296,158.1L268.9,104H323.1z M243.1,104L216,158.1L188.9,104H243.1z M163.1,104
	L136,158.1L108.9,104H163.1z M40,376h32v80H40V376z M488,488H24v-16h464V488z M392,440v16H120v-16H392z M200,312v-16h112v16H200z
	 M264,328v96h-16v-96H264z M472,456h-32v-80h32V456z M432,360c-4.4,0-8,3.6-8,8v88h-16v-24c0-4.4-3.6-8-8-8h-24v-32h24
	c4.4,0,8-3.6,8-8v-32c0-4.4-3.6-8-8-8h-64c-4.4,0-8,3.6-8,8v32c0,4.4,3.6,8,8,8h24v32h-80v-96h40c4.4,0,8-3.6,8-8v-32
	c0-4.4-3.6-8-8-8H192c-4.4,0-8,3.6-8,8v32c0,4.4,3.6,8,8,8h40v96h-80v-32h24c4.4,0,8-3.6,8-8v-32c0-4.4-3.6-8-8-8h-64
	c-4.4,0-8,3.6-8,8v32c0,4.4,3.6,8,8,8h24v32h-24c-4.4,0-8,3.6-8,8v24H88v-88c0-4.4-3.6-8-8-8H64V177.9l32-64l32.8,65.7
	c1.4,2.7,4.1,4.4,7.2,4.4s5.8-1.7,7.2-4.4l32.8-65.7l32.8,65.7c1.4,2.7,4.1,4.4,7.2,4.4s5.8-1.7,7.2-4.4l32.8-65.7l32.8,65.7
	c1.4,2.7,4.1,4.4,7.2,4.4s5.8-1.7,7.2-4.4l32.8-65.7l32.8,65.7c1.4,2.7,4.1,4.4,7.2,4.4s5.8-1.7,7.2-4.4l32.8-65.7l32,64V360H432z
	 M344,376v-16h48v16H344z M120,376v-16h48v16H120z"/>
</svg>
