<?xml version="1.0" encoding="utf-8"?>
<!-- Generator: Adobe Illustrator 23.0.1, SVG Export Plug-In . SVG Version: 6.00 Build 0)  -->
<svg version="1.1" id="Слой_1" xmlns="http://www.w3.org/2000/svg" xmlns:xlink="http://www.w3.org/1999/xlink" x="0px" y="0px"
	 viewBox="0 0 512 512" style="enable-background:new 0 0 512 512;" xml:space="preserve">
<style type="text/css">
	.st0{fill:#44B2E4;}
</style>
<title>house-home-cottage-Apartment-Building</title>
<g id="Expand">
	<rect x="232" y="336" class="st0" width="16" height="16"/>
	<path class="st0" d="M492,153.1l-60-35.2V64h8c4.4,0,8-3.6,8-8V24c0-4.4-3.6-8-8-8h-80c-4.4,0-8,3.6-8,8v32c0,4.4,3.6,8,8,8h8v16.4
		L260,17.1c-2.5-1.5-5.6-1.5-8.1,0l-232,136c-2.4,1.4-4,4.1-4,6.9v40c0,4.4,3.6,8,8,8c1.4,0,2.8-0.4,4-1.1l20-11.7v209.2
		c-9.9,5.7-16,16.2-16,27.6c0,1.4,0.1,2.8,0.3,4.2c-15.4,8.6-20.8,28.1-12.2,43.5C25.8,489.8,36.4,496,48,496h416
		c17.6,0,32-14.2,32-31.9c0-11.6-6.2-22.2-16.3-27.9c0.2-1.4,0.3-2.8,0.3-4.2c0-11.4-6.1-21.9-16-27.6V195.2l20,11.7
		c3.8,2.2,8.7,1,10.9-2.9c0.7-1.2,1.1-2.6,1.1-4v-40C496,157.2,494.5,154.5,492,153.1z M368,32h64v16h-64V32z M384,64h32v44.5
		l-32-18.8V64z M48,480c-8.8,0-16-7.1-16-15.9c0-7.2,4.8-13.6,11.8-15.4c4.3-1.2,6.8-5.6,5.6-9.8c-0.1-0.3-0.2-0.6-0.3-0.9
		c-3.3-8.2,0.6-17.5,8.8-20.8c8.2-3.3,17.5,0.6,20.8,8.8c0.3,0.6,0.5,1.3,0.6,1.9c1.2,4.3,5.6,6.8,9.8,5.6c0.3-0.1,0.6-0.2,0.9-0.3
		c8.3-3.2,17.6,0.9,20.8,9.2c0.2,0.5,0.4,1,0.5,1.5c1.2,4.3,5.6,6.8,9.8,5.6c0.3-0.1,0.6-0.2,0.9-0.3c8.2-3.3,17.5,0.6,20.8,8.8
		s-0.6,17.5-8.8,20.8c-1.9,0.8-4,1.2-6.1,1.2H48z M160,464h192c0,5.6,1.6,11.2,4.4,16H155.6C158.4,475.2,160,469.6,160,464z
		 M296,416h-80V272h80V416z M312,432v16H200v-16H312z M468.2,448.6c8.5,2.3,13.6,11,11.3,19.5c-1.9,7-8.2,11.8-15.4,11.8h-80
		c-8.8,0-16-7.1-16.1-15.9s7.1-16,15.9-16.1c2.1,0,4.2,0.4,6.1,1.2c4.1,1.6,8.8-0.3,10.4-4.4c0.1-0.3,0.2-0.6,0.3-0.9
		c2.4-8.6,11.2-13.6,19.8-11.2c0.5,0.1,1,0.3,1.5,0.5c4.1,1.6,8.8-0.3,10.4-4.4c0.1-0.3,0.2-0.6,0.3-0.9c2.3-8.5,11-13.6,19.5-11.3
		c8.5,2.3,13.6,11,11.3,19.5c-0.2,0.6-0.4,1.3-0.6,1.9c-1.6,4.1,0.3,8.8,4.4,10.4C467.6,448.5,467.9,448.6,468.2,448.6L468.2,448.6z
		 M448,400c-11.5,0-22.1,6.3-27.8,16.3c-12.9-1.7-25.6,4.7-32,16c-1.4-0.2-2.8-0.3-4.2-0.3c-11.4,0-21.9,6.1-27.6,16H328v-24
		c0-4.4-3.6-8-8-8h-8V264c0-4.4-3.6-8-8-8h-96c-4.4,0-8,3.6-8,8v152h-8c-4.4,0-8,3.6-8,8v24h-28.4c-5.7-9.9-16.2-16-27.6-16
		c-1.4,0-2.8,0.1-4.2,0.3c-6.4-11.3-19.1-17.6-32-16C86.1,406.3,75.5,400,64,400V185.8L256,73.3l192,112.6V400z M462.9,176L260,57.1
		c-2.5-1.5-5.6-1.5-8.1,0L49.1,176l-1.1,0.7L32,186v-21.5L256,33.3l224,131.3V186l-16-9.4L462.9,176z"/>
	<rect x="62.1" y="53" transform="matrix(0.8625 -0.506 0.506 0.8625 -13.3808 72.6713)" class="st0" width="129.8" height="16"/>
	<rect x="38.9" y="100" transform="matrix(0.8625 -0.506 0.506 0.8625 -48.2075 38.5375)" class="st0" width="15.8" height="16"/>
	<path class="st0" d="M208,176v40c0,4.4,3.6,8,8,8h80c4.4,0,8-3.6,8-8v-40c0-26.5-21.5-48-48-48S208,149.5,208,176z M248,145.1V168
		h-22.9C228,156.8,236.8,148,248,145.1z M224,184h24v24h-24V184z M264,208v-24h24v24H264z M286.9,168H264v-22.9
		C275.2,148,284,156.8,286.9,168z"/>
	<path class="st0" d="M344,352h80c4.4,0,8-3.6,8-8v-80c0-4.4-3.6-8-8-8h-80c-4.4,0-8,3.6-8,8v80C336,348.4,339.6,352,344,352z
		 M352,336v-16h64v16H352z M416,272v32h-64v-32H416z"/>
	<path class="st0" d="M168,256H88c-4.4,0-8,3.6-8,8v80c0,4.4,3.6,8,8,8h80c4.4,0,8-3.6,8-8v-80C176,259.6,172.4,256,168,256z
		 M160,272v32H96v-32H160z M96,336v-16h64v16H96z"/>
	<rect x="480" y="256" class="st0" width="16" height="112"/>
</g>
</svg>
