<?xml version="1.0" encoding="utf-8"?>
<!-- Generator: Adobe Illustrator 23.0.1, SVG Export Plug-In . SVG Version: 6.00 Build 0)  -->
<svg version="1.1" id="Layer_1" xmlns="http://www.w3.org/2000/svg" xmlns:xlink="http://www.w3.org/1999/xlink" x="0px" y="0px"
	 viewBox="0 0 512 512" style="enable-background:new 0 0 512 512;" xml:space="preserve">
<style type="text/css">
	.st0{fill:#44B2E4;}
</style>
<title>SWIMMING POOL</title>
<path class="st0" d="M89.1,342.5c12.7,0,24.7-5.3,33.4-14.5c8.7,9.2,20.7,14.5,33.4,14.5c2,0,4-0.2,6-0.4c0.5,0,1-0.1,1.5-0.2
	c9.9-1.7,19-6.5,25.9-13.8c17.2,18.4,46.1,19.5,64.5,2.3c0.8-0.7,1.5-1.5,2.3-2.3c8.7,9.2,20.7,14.5,33.4,14.5
	c1.9,0,3.8-0.1,5.7-0.4c0.5,0,0.9-0.1,1.4-0.2c10.1-1.6,19.3-6.5,26.3-13.9c17.2,18.4,46.1,19.5,64.5,2.3c0.8-0.7,1.5-1.5,2.3-2.3
	c17.2,18.5,46.2,19.5,64.6,2.2c9.3-8.7,14.5-20.8,14.5-33.5c0-3.9-3.1-7-7-7s-7,3.1-7,7c0,17.5-14.2,31.8-31.7,31.8
	c-11.3,0-21.7-6-27.4-15.7c-2-3.3-6.3-4.4-9.6-2.5c-1,0.6-1.9,1.5-2.5,2.5c-8.8,15.1-28.2,20.2-43.3,11.4
	c-4.3-2.5-7.9-5.9-10.6-10.1V118.3c0-9.2,7.4-16.6,16.6-16.6h18.5c11.6,0,21-9.4,21-21c0-11.6-9.4-21-21-21h-18.4
	c-32.3,0-58.6,26.2-58.6,58.6v35.8h-91.2v-35.8c0-9.2,7.4-16.6,16.6-16.6h18.5c11.6,0,21-9.4,21-21s-9.4-21-21-21h-18.5
	c-32.3,0-58.6,26.2-58.6,58.6v210.1c-10.7-0.5-20.5-6.4-26-15.6c-2-3.3-6.3-4.4-9.6-2.5c-1,0.6-1.9,1.5-2.5,2.5
	C107.6,328,88.1,333,73,324.1c-9.7-5.7-15.7-16.1-15.7-27.4c0-3.9-3.1-7-7-7s-7,3.1-7,7C43.3,322,63.8,342.5,89.1,342.5z
	 M287.7,228.1h-91.2v-6h91.2V228.1z M196.5,242.1h91.2v20h-91.2V242.1z M196.5,276.2h91.2v6h-91.2V276.2z M287.7,208.1h-91.2v-20
	h91.2V208.1z M262,312.9c-2-3.3-6.3-4.4-9.6-2.5c-1,0.6-1.9,1.5-2.5,2.5c-8.8,15.1-28.2,20.2-43.3,11.4c-4.1-2.4-7.6-5.6-10.2-9.5
	v-18.5h91.2v32.2C277.1,327.8,267.5,322,262,312.9z M301.7,118.3c0-24.6,20-44.6,44.6-44.6h18.5c3.9,0,7,3.1,7,7s-3.1,7-7,7h-18.5
	c-16.9,0-30.6,13.7-30.6,30.6v196.1c-3.4,5.1-8.3,9.2-14,11.6V118.3z M287.7,168.1v6h-91.2v-6H287.7z M213.1,73.8h18.5
	c3.9,0,7,3.1,7,7s-3.1,7-7,7h-18.5c-16.9,0-30.6,13.7-30.6,30.6v195.6c-3.4,5.3-8.3,9.4-14,11.9V118.3
	C168.5,93.7,188.5,73.8,213.1,73.8z"/>
<path class="st0" d="M461.7,346.1c-3.9,0-7,3.1-7,7c0,17.5-14.2,31.8-31.7,31.8c-11.3,0-21.7-6-27.4-15.7c-2-3.3-6.3-4.4-9.6-2.5
	c-1,0.6-1.9,1.5-2.5,2.5c-8.9,15.1-28.3,20.2-43.4,11.3c-4.7-2.7-8.6-6.6-11.3-11.3c-2-3.3-6.3-4.4-9.6-2.5c-1,0.6-1.9,1.5-2.5,2.5
	c-8.9,15.1-28.3,20.2-43.4,11.3c-4.7-2.7-8.6-6.6-11.3-11.3c-2-3.3-6.3-4.4-9.6-2.5c-1,0.6-1.9,1.5-2.5,2.5
	c-8.9,15.1-28.3,20.2-43.4,11.3c-4.7-2.7-8.6-6.6-11.3-11.3c-2-3.3-6.3-4.4-9.6-2.5c-1,0.6-1.9,1.5-2.5,2.5
	c-8.9,15.1-28.3,20.2-43.4,11.3c-4.7-2.7-8.6-6.6-11.3-11.3c-2-3.3-6.3-4.4-9.6-2.5c-1,0.6-1.9,1.5-2.5,2.5
	c-8.9,15.1-28.3,20.2-43.5,11.3c-9.7-5.7-15.7-16.1-15.7-27.4c0-3.9-3.1-7-7-7s-7,3.1-7,7c0,25.3,20.4,45.8,45.7,45.8
	c12.7,0,24.8-5.2,33.5-14.5c17.2,18.4,46.1,19.5,64.5,2.3c0.8-0.7,1.5-1.5,2.3-2.3c17.2,18.4,46.1,19.5,64.5,2.3
	c0.8-0.7,1.5-1.5,2.3-2.3c17.2,18.4,46.1,19.5,64.5,2.3c0.8-0.7,1.5-1.5,2.3-2.3c17.2,18.4,46.1,19.5,64.5,2.3
	c0.8-0.7,1.5-1.5,2.3-2.3c17.2,18.5,46.2,19.5,64.6,2.2c9.3-8.7,14.5-20.8,14.5-33.5C468.7,349.2,465.5,346.1,461.7,346.1z"/>
<path class="st0" d="M461.7,399.5c-3.9,0-7,3.1-7,7c0,17.5-14.2,31.8-31.7,31.8c-11.3,0-21.7-6-27.4-15.7c-2-3.3-6.3-4.4-9.6-2.5
	c-1,0.6-1.9,1.5-2.5,2.5c-8.9,15.1-28.3,20.2-43.4,11.3c-4.7-2.7-8.6-6.6-11.3-11.3c-2-3.3-6.3-4.4-9.6-2.5c-1,0.6-1.9,1.5-2.5,2.5
	c-8.9,15.1-28.3,20.2-43.4,11.3c-4.7-2.7-8.6-6.6-11.3-11.3c-2-3.3-6.3-4.4-9.6-2.5c-1,0.6-1.9,1.5-2.5,2.5
	c-8.9,15.1-28.3,20.2-43.4,11.3c-4.7-2.7-8.6-6.6-11.3-11.3c-2-3.3-6.3-4.4-9.6-2.5c-1,0.6-1.9,1.5-2.5,2.5
	c-8.9,15.1-28.3,20.2-43.4,11.3c-4.7-2.7-8.6-6.6-11.3-11.3c-2-3.3-6.3-4.4-9.6-2.5c-1,0.6-1.9,1.5-2.5,2.5
	c-8.9,15.1-28.3,20.2-43.5,11.3c-9.7-5.7-15.7-16.1-15.7-27.4c0-3.9-3.1-7-7-7s-7,3.1-7,7c0,25.3,20.4,45.8,45.7,45.8
	c12.7,0,24.8-5.2,33.5-14.5c17.2,18.4,46.1,19.5,64.5,2.3c0.8-0.7,1.5-1.5,2.3-2.3c17.2,18.4,46.1,19.5,64.5,2.3
	c0.8-0.7,1.5-1.5,2.3-2.3c17.2,18.4,46.1,19.5,64.5,2.3c0.8-0.7,1.5-1.5,2.3-2.3c17.2,18.4,46.1,19.5,64.5,2.3
	c0.8-0.7,1.5-1.5,2.3-2.3c17.2,18.5,46.2,19.5,64.6,2.2c9.3-8.7,14.5-20.8,14.5-33.5C468.7,402.6,465.5,399.5,461.7,399.5z"/>
</svg>
