<?xml version="1.0" encoding="utf-8"?>
<!-- Generator: Adobe Illustrator 23.0.1, SVG Export Plug-In . SVG Version: 6.00 Build 0)  -->
<svg version="1.1" id="Capa_1" xmlns="http://www.w3.org/2000/svg" xmlns:xlink="http://www.w3.org/1999/xlink" x="0px" y="0px"
	 viewBox="0 0 512 512" style="enable-background:new 0 0 512 512;" xml:space="preserve">
<style type="text/css">
	.st0{fill:#44B2E4;}
</style>
<g>
	<g>
		<path class="st0" d="M507.8,146.2L260.3,1.2c-2.6-1.5-5.8-1.6-8.4-0.1L4.4,137.6C1.7,139.1,0,142,0,145.1v358.4
			c0,4.7,3.8,8.5,8.5,8.5h42.7c4.7,0,8.5-3.8,8.5-8.5V204.8h392.5v298.7c0,4.7,3.8,8.5,8.5,8.5h42.7c4.7,0,8.5-3.8,8.5-8.5V153.6
			C512,150.6,510.4,147.8,507.8,146.2z M494.9,494.9h-25.6V196.3c0-4.7-3.8-8.5-8.5-8.5H51.2c-4.7,0-8.5,3.8-8.5,8.5v298.7H17.1
			V150.1L255.9,18.3l239.1,140.1L494.9,494.9L494.9,494.9z"/>
	</g>
</g>
<g>
	<g>
		<path class="st0" d="M426.7,392.5H324.3c-4.7,0-8.5,3.8-8.5,8.5v102.4c0,4.7,3.8,8.5,8.5,8.5h102.4c4.7,0,8.5-3.8,8.5-8.5V401.1
			C435.2,396.3,431.4,392.5,426.7,392.5z M418.1,494.9h-85.3v-85.3h85.3V494.9z"/>
	</g>
</g>
<g>
	<g>
		<path class="st0" d="M384,401.1v25.6h-17.1v-25.6h-17.1v34.1c0,4.7,3.8,8.5,8.5,8.5h34.1c4.7,0,8.5-3.8,8.5-8.5v-34.1H384z"/>
	</g>
</g>
<g>
	<g>
		<path class="st0" d="M324.3,392.5H221.9c-4.7,0-8.5,3.8-8.5,8.5v102.4c0,4.7,3.8,8.5,8.5,8.5h102.4c4.7,0,8.5-3.8,8.5-8.5V401.1
			C332.8,396.3,329,392.5,324.3,392.5z M315.7,494.9h-85.3v-85.3h85.3V494.9z"/>
	</g>
</g>
<g>
	<g>
		<path class="st0" d="M281.6,401.1v25.6h-17.1v-25.6h-17.1v34.1c0,4.7,3.8,8.5,8.5,8.5h34.1c4.7,0,8.5-3.8,8.5-8.5v-34.1H281.6z"/>
	</g>
</g>
<g>
	<g>
		<path class="st0" d="M426.7,290.1H324.3c-4.7,0-8.5,3.8-8.5,8.5v102.4c0,4.7,3.8,8.5,8.5,8.5h102.4c4.7,0,8.5-3.8,8.5-8.5V298.7
			C435.2,293.9,431.4,290.1,426.7,290.1z M418.1,392.5h-85.3v-85.3h85.3V392.5z"/>
	</g>
</g>
<g>
	<g>
		<path class="st0" d="M384,298.7v25.6h-17.1v-25.6h-17.1v34.1c0,4.7,3.8,8.5,8.5,8.5h34.1c4.7,0,8.5-3.8,8.5-8.5v-34.1H384z"/>
	</g>
</g>
<g>
	<g>
		<rect x="51.2" y="256" class="st0" width="409.6" height="17.1"/>
	</g>
</g>
<g>
	<g>
		<rect x="51.2" y="221.9" class="st0" width="409.6" height="17.1"/>
	</g>
</g>
<g>
	<g>
		<path class="st0" d="M298.7,119.5h-85.3c-4.7,0-8.5,3.8-8.5,8.5v34.1c0,4.7,3.8,8.5,8.5,8.5h85.3c4.7,0,8.5-3.8,8.5-8.5V128
			C307.2,123.3,303.4,119.5,298.7,119.5z M290.1,153.6h-68.3v-17.1h68.3V153.6z"/>
	</g>
</g>
</svg>
