<?xml version="1.0" encoding="utf-8"?>
<!-- Generator: Adobe Illustrator 23.0.1, SVG Export Plug-In . SVG Version: 6.00 Build 0)  -->
<svg version="1.1" id="Capa_1" xmlns="http://www.w3.org/2000/svg" xmlns:xlink="http://www.w3.org/1999/xlink" x="0px" y="0px"
	 viewBox="0 0 447.9 447.9" style="enable-background:new 0 0 447.9 447.9;" xml:space="preserve">
<style type="text/css">
	.st0{fill:#44B2E4;}
</style>
<path class="st0" d="M440.6,424V256c0-4.4-3.6-8-8-8h-23.7V24c4.4-0.1,7.9-3.6,7.9-8c0-4.4-3.6-8-8-8h-7.9h-96.1h-7.9
	c-4.4,0-8,3.6-8,8c0,4.4,3.5,7.9,7.9,8v224H17.3c-4.4,0-8,3.6-8,8v168H8c-4.4,0-8,3.6-8,8s3.6,8,8,8h431.9c4.4,0,8-3.6,8-8
	C447.9,427.8,444.7,424.3,440.6,424z M312.8,80.2V56h32.1v24.3H312.8z M360.9,56h32.1v24.3h-32.1V56z M392.9,24v16h-80.1V24H392.9z
	 M312.8,96.2h80.1V248h-80.1V96.2z M304.8,264h96.1h23.7v32H305.4v-8.3c0-4.4-3.6-8-8-8h-144c-4.4,0-8,3.6-8,8v8.3H25.3v-32H304.8z
	 M161.4,295.6h128v16.8h-128L161.4,295.6L161.4,295.6z M25.3,312h120.2v8.5c0,4.4,3.6,8,8,8h144c4.4,0,8-3.6,8-8V312h119.2v112
	h-15.7v-72c0-4.4-3.6-8-8-8h-96c-4.4,0-8,3.6-8,8v72h-15.5v-72c0-4.4-3.6-8-8-8h-96c-4.4,0-8,3.6-8,8v72h-16.2v-72c0-4.4-3.6-8-8-8
	h-96c-4.4,0-8,3.6-8,8v72h-16V312z M392.9,424h-80v-64h80V424z M265.4,424h-80v-64h80V424z M137.3,424h-80v-64h80V424z"/>
</svg>
