<?xml version="1.0" encoding="utf-8"?>
<!-- Generator: Adobe Illustrator 23.0.1, SVG Export Plug-In . SVG Version: 6.00 Build 0)  -->
<svg version="1.1" id="Слой_1" xmlns="http://www.w3.org/2000/svg" xmlns:xlink="http://www.w3.org/1999/xlink" x="0px" y="0px"
	 viewBox="0 0 51 46" style="enable-background:new 0 0 51 46;" xml:space="preserve">
<style type="text/css">
	.st0{fill:#44B2E4;}
</style>
<g>
	<path class="st0" d="M45.6,0h-33C9.8,0,7.5,2.3,7.5,5.1l-0.2,29H0.8C0.3,34.2,0,34.6,0,35v4c0,3.7,3,6.8,6.6,7v0h27.8V46
		c0.2,0,0.3,0.1,0.5,0.1h0c3.9,0,7-3.2,6.9-7V13.6h8.4c0.5,0,0.8-0.4,0.8-0.9V5.4C51,2.4,48.6,0,45.6,0L45.6,0z M7,44.4L7,44.4
		C4,44.4,1.7,42,1.7,39v-3.2h26.2V39c0,1.9,0.7,3.6,2,5c0.1,0.1,0.3,0.2,0.4,0.4H7z M40.2,39c0,2.9-2.4,5.4-5.3,5.4h0
		c-3,0-5.3-2.4-5.3-5.4v-4c0-0.5-0.4-0.8-0.8-0.9H8.9l0.2-29c0-1.9,1.6-3.5,3.5-3.5h29.1c-0.9,1-1.6,2.3-1.6,3.8L40.2,39z M49.3,5.4
		V12h-7.5V5.4c0-2.1,1.7-3.8,3.8-3.8h0C47.7,1.7,49.4,3.4,49.3,5.4L49.3,5.4z"/>
	<path class="st0" d="M19.4,20.3l4.3,2.9c0.3,0.2,0.6,0.2,0.9,0l4.2-2.9c1.5-1,2.6-3.1,2.6-4.9V9.5c0-0.3-0.2-0.6-0.4-0.7l-6.5-3.2
		c-0.2-0.1-0.5-0.1-0.7,0l-6.5,3.2c-0.3,0.1-0.4,0.4-0.4,0.7v5.9C16.8,17.2,17.9,19.3,19.4,20.3L19.4,20.3z M18.5,10.1l5.6-2.8
		l5.6,2.8v5.4c0,1.2-0.8,2.8-1.8,3.5l-3.8,2.6L20.3,19c-1-0.7-1.8-2.3-1.8-3.5L18.5,10.1z"/>
	<path class="st0" d="M22.7,16.7c0.2,0.2,0.4,0.2,0.6,0.2h0c0.2,0,0.4-0.1,0.6-0.2l3.3-3.3c0.3-0.3,0.3-0.8,0-1.2
		c-0.3-0.3-0.8-0.3-1.2,0l-2.7,2.7l-1.1-1.1c-0.3-0.3-0.8-0.3-1.2,0c-0.3,0.3-0.3,0.8,0,1.2L22.7,16.7z"/>
	<path class="st0" d="M34.4,25.6H14.6c-0.5,0-0.8,0.4-0.8,0.8s0.4,0.8,0.8,0.8h19.8c0.5,0,0.8-0.4,0.8-0.8S34.8,25.6,34.4,25.6z"/>
	<path class="st0" d="M34.4,29.4H14.6c-0.5,0-0.8,0.4-0.8,0.8c0,0.5,0.4,0.8,0.8,0.8h19.8c0.5,0,0.8-0.4,0.8-0.8
		C35.2,29.8,34.8,29.4,34.4,29.4z"/>
</g>
</svg>
