<?xml version="1.0" encoding="utf-8"?>
<!-- Generator: Adobe Illustrator 23.0.1, SVG Export Plug-In . SVG Version: 6.00 Build 0)  -->
<svg version="1.1" id="Capa_1" xmlns="http://www.w3.org/2000/svg" xmlns:xlink="http://www.w3.org/1999/xlink" x="0px" y="0px"
	 viewBox="0 0 51 51" style="enable-background:new 0 0 51 51;" xml:space="preserve">
<style type="text/css">
	.st0{fill:#44B2E4;}
</style>
<g>
	<g>
		<g>
			<path class="st0" d="M34,28.1c-2.8,0-5.1,2.3-5.1,5.1s2.3,5.1,5.1,5.1s5.1-2.3,5.1-5.1S36.8,28.1,34,28.1z M34,36.6
				c-1.9,0-3.4-1.5-3.4-3.4c0-1.9,1.5-3.4,3.4-3.4c1.9,0,3.4,1.5,3.4,3.4C37.4,35,35.9,36.6,34,36.6z"/>
		</g>
	</g>
	<g>
		<g>
			<path class="st0" d="M35.7,36.6v3.5l-1.2-0.8c-0.3-0.2-0.7-0.2-0.9,0l-1.2,0.8v-3.5h-1.7v5.1c0,0.3,0.2,0.6,0.4,0.7
				c0.3,0.1,0.6,0.1,0.9,0L34,41l2.1,1.4c0.1,0.1,0.3,0.1,0.5,0.1c0.1,0,0.3,0,0.4-0.1c0.3-0.1,0.4-0.4,0.4-0.7v-5.1H35.7z"/>
		</g>
	</g>
	<g>
		<g>
			<rect x="19.6" y="8.5" class="st0" width="11" height="1.7"/>
		</g>
	</g>
	<g>
		<g>
			<rect x="11.9" y="13.6" class="st0" width="27.2" height="1.7"/>
		</g>
	</g>
	<g>
		<g>
			<rect x="11.9" y="18.7" class="st0" width="18.7" height="1.7"/>
		</g>
	</g>
	<g>
		<g>
			<rect x="34" y="18.7" class="st0" width="5.1" height="1.7"/>
		</g>
	</g>
	<g>
		<g>
			<rect x="11.9" y="23.8" class="st0" width="27.2" height="1.7"/>
		</g>
	</g>
	<g>
		<g>
			<rect x="11.9" y="28.9" class="st0" width="10.2" height="1.7"/>
		</g>
	</g>
	<g>
		<g>
			<rect x="11.9" y="33.2" class="st0" width="4.3" height="1.7"/>
		</g>
	</g>
	<g>
		<g>
			<rect x="19.6" y="33.2" class="st0" width="2.6" height="1.7"/>
		</g>
	</g>
	<g>
		<g>
			<path class="st0" d="M46.8,0c-2.3,0-4.3,1.9-4.3,4.3V6c0,0.5,0.4,0.8,0.8,0.8h6.8C50.6,6.8,51,6.4,51,6V4.3C51,1.9,49.1,0,46.8,0
				z M49.3,5.1h-5.1V4.3c0-1.4,1.1-2.6,2.6-2.6c1.4,0,2.6,1.1,2.6,2.6V5.1z"/>
		</g>
	</g>
	<g>
		<g>
			<path class="st0" d="M46.8,0H11C8.7,0,6.8,1.9,6.8,4.3v40.8h1.7V4.3c0-1.4,1.1-2.6,2.6-2.6h32.3c-0.5,0.7-0.9,1.6-0.9,2.6v42.5
				c0,1.4-1.1,2.6-2.6,2.6H7.7V51H40c2.3,0,4.3-1.9,4.3-4.3V4.3c0-1.4,1.1-2.6,2.6-2.6c0.5,0,0.8-0.4,0.8-0.8S47.2,0,46.8,0z"/>
		</g>
	</g>
	<g>
		<g>
			<path class="st0" d="M40,49.3c-1.4,0-2.6-1.1-2.6-2.6v-1.7c0-0.5-0.4-0.8-0.8-0.8H0.8c-0.5,0-0.8,0.4-0.8,0.8v1.7
				C0,49.1,1.9,51,4.3,51H40c0.5,0,0.8-0.4,0.8-0.8S40.4,49.3,40,49.3z M4.3,49.3c-1.4,0-2.6-1.1-2.6-2.6v-0.8h34v0.8
				c0,1,0.3,1.8,0.9,2.6L4.3,49.3L4.3,49.3z"/>
		</g>
	</g>
</g>
</svg>
