<?xml version="1.0" encoding="utf-8"?>
<!-- Generator: Adobe Illustrator 23.0.1, SVG Export Plug-In . SVG Version: 6.00 Build 0)  -->
<svg version="1.1" id="Capa_1" xmlns="http://www.w3.org/2000/svg" xmlns:xlink="http://www.w3.org/1999/xlink" x="0px" y="0px"
	 viewBox="0 0 512 512" style="enable-background:new 0 0 512 512;" xml:space="preserve">
<style type="text/css">
	.st0{fill:#44B2E4;}
</style>
<g>
	<g>
		<path class="st0" d="M450.3,405.4c0.1-0.2,0.2-0.3,0.4-0.5c0,0,0.1-0.1,0.1-0.1c0.1-0.2,0.2-0.4,0.3-0.5c0,0,0-0.1,0-0.1
			c0.1-0.2,0.2-0.4,0.3-0.6c0,0,0,0,0-0.1c0.1-0.2,0.2-0.4,0.2-0.7c0,0,0-0.1,0-0.1c0.1-0.2,0.1-0.5,0.2-0.7c0-0.1,0-0.1,0-0.2
			c0-0.2,0.1-0.4,0.1-0.6c0-0.3,0-0.5,0-0.8V8.2c0-4.5-3.7-8.2-8.2-8.2H68.1c-4.5,0-8.2,3.7-8.2,8.2v495.7c0,4.5,3.7,8.2,8.2,8.2
			h272.3c0.3,0,0.5,0,0.8,0c0.2,0,0.4-0.1,0.6-0.1c0.1,0,0.1,0,0.2,0c0.2,0,0.5-0.1,0.7-0.2c0,0,0.1,0,0.1,0
			c0.2-0.1,0.4-0.2,0.7-0.2c0,0,0.1,0,0.1,0c0.2-0.1,0.4-0.2,0.6-0.3c0,0,0.1,0,0.1-0.1c0.2-0.1,0.4-0.2,0.5-0.3
			c0.1,0,0.1-0.1,0.2-0.1c0.2-0.1,0.3-0.2,0.5-0.3c0.1,0,0.1-0.1,0.2-0.1c0.2-0.2,0.4-0.3,0.5-0.5c0,0,0,0,0.1-0.1l103.5-103.5
			c0,0,0,0,0-0.1c0.2-0.2,0.3-0.4,0.5-0.5C450.3,405.5,450.3,405.4,450.3,405.4z M76.3,16.3h359.5v375.8h-95.3
			c-4.5,0-8.2,3.7-8.2,8.2v95.3h-256V16.3z M424.2,408.5l-75.6,75.6v-75.6H424.2z"/>
		<path class="st0" d="M221.9,103.5h156.6c4.5,0,8.2-3.7,8.2-8.2s-3.7-8.2-8.2-8.2H221.9c-4.5,0-8.2,3.7-8.2,8.2
			S217.4,103.5,221.9,103.5z"/>
		<path class="st0" d="M149.5,122.9c1.6,1.6,3.7,2.4,5.8,2.4c2.1,0,4.2-0.8,5.8-2.4l43.6-43.6c3.2-3.2,3.2-8.4,0-11.6
			c-3.2-3.2-8.4-3.2-11.6,0l-37.8,37.8L144.7,95c-3.2-3.2-8.4-3.2-11.6,0c-3.2,3.2-3.2,8.4,0,11.6L149.5,122.9z"/>
		<path class="st0" d="M201.5,171.6c0,4.5,3.7,8.2,8.2,8.2h168.9c4.5,0,8.2-3.7,8.2-8.2s-3.7-8.2-8.2-8.2H209.7
			C205.2,163.4,201.5,167.1,201.5,171.6z"/>
		<path class="st0" d="M177,141.6h-43.6c-4.5,0-8.2,3.7-8.2,8.2v43.6c0,4.5,3.7,8.2,8.2,8.2H177c4.5,0,8.2-3.7,8.2-8.2v-43.6
			C185.2,145.3,181.5,141.6,177,141.6z M168.9,185.2h-27.2V158h27.2V185.2z"/>
		<path class="st0" d="M378.6,239.7H209.7c-4.5,0-8.2,3.7-8.2,8.2c0,4.5,3.7,8.2,8.2,8.2h168.9c4.5,0,8.2-3.7,8.2-8.2
			C386.7,243.3,383.1,239.7,378.6,239.7z"/>
		<path class="st0" d="M177,217.9h-43.6c-4.5,0-8.2,3.7-8.2,8.2v43.6c0,4.5,3.7,8.2,8.2,8.2H177c4.5,0,8.2-3.7,8.2-8.2V226
			C185.2,221.5,181.5,217.9,177,217.9z M168.9,261.4h-27.2v-27.2h27.2V261.4z"/>
		<path class="st0" d="M378.6,315.9H209.7c-4.5,0-8.2,3.7-8.2,8.2c0,4.5,3.7,8.2,8.2,8.2h168.9c4.5,0,8.2-3.7,8.2-8.2
			C386.7,319.6,383.1,315.9,378.6,315.9z"/>
		<path class="st0" d="M177,294.1h-43.6c-4.5,0-8.2,3.7-8.2,8.2v43.6c0,4.5,3.7,8.2,8.2,8.2H177c4.5,0,8.2-3.7,8.2-8.2v-43.6
			C185.2,297.8,181.5,294.1,177,294.1z M168.9,337.7h-27.2v-27.2h27.2V337.7z"/>
		<path class="st0" d="M307.7,392.2h-98c-4.5,0-8.2,3.7-8.2,8.2c0,4.5,3.7,8.2,8.2,8.2h98c4.5,0,8.2-3.7,8.2-8.2
			C315.9,395.8,312.3,392.2,307.7,392.2z"/>
		<path class="st0" d="M177,370.4h-43.6c-4.5,0-8.2,3.7-8.2,8.2v43.6c0,4.5,3.7,8.2,8.2,8.2H177c4.5,0,8.2-3.7,8.2-8.2v-43.6
			C185.2,374,181.5,370.4,177,370.4z M168.9,414h-27.2v-27.2h27.2V414z"/>
	</g>
</g>
</svg>
