<?xml version="1.0" encoding="utf-8"?>
<!-- Generator: Adobe Illustrator 23.0.1, SVG Export Plug-In . SVG Version: 6.00 Build 0)  -->
<svg version="1.1" id="Capa_1" xmlns="http://www.w3.org/2000/svg" xmlns:xlink="http://www.w3.org/1999/xlink" x="0px" y="0px"
	 viewBox="0 0 512 512" style="enable-background:new 0 0 512 512;" xml:space="preserve">
<style type="text/css">
	.st0{fill:#FFFFFF;}
</style>
<g>
	<g>
		<path class="st0" d="M363.3,0H148.7C66.7,0,0,66.7,0,148.7v214.5C0,445.3,66.7,512,148.7,512h214.5c82,0,148.7-66.7,148.7-148.7
			V148.7C512,66.7,445.3,0,363.3,0z M472,363.3c0,60-48.8,108.7-108.7,108.7H148.7C88.8,472,40,423.2,40,363.3V148.7
			C40,88.8,88.8,40,148.7,40h214.5c60,0,108.7,48.8,108.7,108.7V363.3z"/>
	</g>
</g>
<g>
	<g>
		<path class="st0" d="M256,118c-76.1,0-138,61.9-138,138s61.9,138,138,138s138-61.9,138-138S332.1,118,256,118z M256,354
			c-54,0-98-44-98-98s44-98,98-98s98,44,98,98S310,354,256,354z"/>
	</g>
</g>
<g>
	<g>
		<circle class="st0" cx="396" cy="116" r="20"/>
	</g>
</g>
</svg>
